<?xml version="1.0" encoding="UTF-8" standalone="no"?>
<svg
   xmlns:dc="http://purl.org/dc/elements/1.1/"
   xmlns:cc="http://creativecommons.org/ns#"
   xmlns:rdf="http://www.w3.org/1999/02/22-rdf-syntax-ns#"
   xmlns:svg="http://www.w3.org/2000/svg"
   xmlns="http://www.w3.org/2000/svg"
   viewBox="0 0 428.92401 195.41467"
   height="195.41467"
   width="428.92401"
   xml:space="preserve"
   id="svg2"
   version="1.1"><metadata
     id="metadata8"><rdf:RDF><cc:Work
         rdf:about=""><dc:format>image/svg+xml</dc:format><dc:type
           rdf:resource="http://purl.org/dc/dcmitype/StillImage" /></cc:Work></rdf:RDF></metadata><defs
     id="defs6"><clipPath
       id="clipPath18"
       clipPathUnits="userSpaceOnUse"><path
         id="path16"
         d="M 0,146.561 H 321.693 V 0 H 0 Z" /></clipPath></defs><g
     transform="matrix(1.3333333,0,0,-1.3333333,0,195.41467)"
     id="g10"><g
       id="g12"><g
         clip-path="url(#clipPath18)"
         id="g14"><g
           transform="translate(88.1831,41.9639)"
           id="g20"><path
             id="path22"
             style="fill:#211d1d;fill-opacity:1;fill-rule:nonzero;stroke:none"
             d="m 0,0 c 0,0 -8.722,0.791 -8.035,9.356 0,0 0.899,11.894 23.788,5.498 C 15.753,14.854 15.649,-1.48 0,0 m 11.155,44.142 c 0,0 -14.273,3.065 -25.851,-6.134 l 3.965,-8.194 c 0,0 10.731,8.3 20.459,5.127 0,0 7.876,-2.008 6.449,-12.688 0,0 -17.128,6.874 -29.075,-3.488 0,0 -7.876,-6.661 -3.278,-17.236 0,0 2.486,-7.821 14.539,-9.407 0,0 20.423,-3.181 27.012,13.006 0,0 12.635,32.88 -14.22,39.014" /></g><g
           transform="translate(46.9585,115.0791)"
           id="g24"><path
             id="path26"
             style="fill:#fbca09;fill-opacity:1;fill-rule:nonzero;stroke:none"
             d="m 0,0 0.001,-0.055 c -6.01,0 -6.516,-5.367 -6.558,-6.12 V -25.941 H 133.597 V 0 Z" /></g><g
           transform="translate(68.0122,38.1963)"
           id="g28"><path
             id="path30"
             style="fill:#211d1d;fill-opacity:1;fill-rule:nonzero;stroke:none"
             d="m 0,0 c -1.742,-0.775 -3.889,-1.549 -6.437,-2.324 -2.549,-0.774 -5.21,-1.16 -7.985,-1.16 -1.806,0 -3.499,0.226 -5.079,0.677 -1.582,0.45 -2.968,1.176 -4.161,2.176 -1.195,1 -2.146,2.29 -2.856,3.871 -0.709,1.58 -1.062,3.498 -1.062,5.76 v 29.128 h -9.926 v 9.968 h 9.926 v 16.156 h 12.966 V 48.096 H -3.871 V 38.128 H -14.614 V 13.354 c 0,-1.807 0.485,-3.083 1.451,-3.823 0.969,-0.742 2.132,-1.112 3.485,-1.112 1.355,0 2.675,0.225 3.967,0.677 1.29,0.449 2.322,0.838 3.098,1.162 z" /></g><g
           transform="translate(126.9883,86.292)"
           id="g32"><path
             id="path34"
             style="fill:#211d1d;fill-opacity:1;fill-rule:nonzero;stroke:none"
             d="m 0,0 10.838,-15.871 0.873,-1.742 0.869,1.742 L 23.42,0 H 36.774 L 18.773,-25.452 37.063,-50.711 H 23.709 l -11.129,15.775 -0.869,1.645 -0.873,-1.645 -11.129,-15.775 H -13.646 L 4.741,-25.452 -13.354,0 Z" /></g><path
           id="path36"
           style="fill:#211d1d;fill-opacity:1;fill-rule:nonzero;stroke:none"
           d="m 167.589,86.292 h 12.967 V 35.581 h -12.967 z" /><g
           transform="translate(193.7373,60.4521)"
           id="g38"><path
             id="path40"
             style="fill:#211d1d;fill-opacity:1;fill-rule:nonzero;stroke:none"
             d="m 0,0 c 0,-2.968 0.518,-5.758 1.549,-8.37 1.031,-2.612 2.435,-4.886 4.211,-6.822 1.773,-1.936 3.853,-3.47 6.24,-4.599 2.389,-1.127 4.937,-1.693 7.646,-1.693 2.709,0 5.258,0.566 7.647,1.693 2.385,1.129 4.465,2.693 6.24,4.695 1.776,2 3.194,4.306 4.258,6.918 1.064,2.614 1.598,5.436 1.598,8.469 0,2.967 -0.534,5.758 -1.598,8.371 -1.064,2.613 -2.482,4.901 -4.258,6.871 -1.775,1.967 -3.855,3.531 -6.24,4.694 -2.389,1.162 -4.938,1.742 -7.647,1.742 -2.646,0 -5.162,-0.58 -7.548,-1.742 C 9.711,19.064 7.613,17.484 5.809,15.484 4,13.482 2.58,11.145 1.549,8.469 0.518,5.79 0,2.969 0,0 m 19.646,-25.838 c -3.548,0 -6.822,0.695 -9.822,2.08 -3,1.387 -5.595,3.274 -7.789,5.661 -2.197,2.387 -3.906,5.161 -5.131,8.324 -1.224,3.161 -1.838,6.484 -1.838,9.968 0,3.545 0.629,6.903 1.887,10.063 1.258,3.16 3,5.936 5.225,8.324 2.228,2.386 4.822,4.272 7.791,5.661 2.967,1.386 6.195,2.079 9.677,2.079 3.483,0 6.727,-0.693 9.727,-2.079 3,-1.389 5.611,-3.275 7.838,-5.661 2.227,-2.388 3.969,-5.164 5.227,-8.324 1.255,-3.16 1.884,-6.518 1.884,-10.063 0,-3.484 -0.629,-6.807 -1.884,-9.968 -1.258,-3.163 -2.985,-5.937 -5.178,-8.324 -2.196,-2.387 -4.807,-4.274 -7.84,-5.661 -3.033,-1.385 -6.291,-2.08 -9.774,-2.08" /></g><g
           transform="translate(260.8037,34.6143)"
           id="g42"><path
             id="path44"
             style="fill:#211d1d;fill-opacity:1;fill-rule:nonzero;stroke:none"
             d="m 0,0 c -3.869,0 -7.582,0.646 -11.129,1.936 -3.551,1.291 -6.644,3.224 -9.291,5.805 l 2.42,3.292 c 2.709,-2.453 5.516,-4.26 8.42,-5.419 2.902,-1.163 6.096,-1.743 9.58,-1.743 4.385,0 7.92,0.92 10.598,2.758 2.675,1.838 4.015,4.404 4.015,7.693 0,1.549 -0.34,2.856 -1.017,3.92 -0.678,1.065 -1.692,1.967 -3.047,2.71 -1.356,0.741 -3.033,1.402 -5.033,1.983 -2,0.581 -4.323,1.194 -6.967,1.84 -2.84,0.645 -5.309,1.288 -7.404,1.934 -2.096,0.645 -3.823,1.42 -5.176,2.323 -1.358,0.903 -2.373,1.999 -3.051,3.29 -0.676,1.289 -1.014,2.936 -1.014,4.937 0,2.514 0.483,4.708 1.451,6.581 0.969,1.869 2.307,3.418 4.016,4.644 1.709,1.224 3.678,2.144 5.902,2.759 2.227,0.611 4.6,0.917 7.114,0.917 3.933,0 7.418,-0.662 10.451,-1.982 3.031,-1.324 5.387,-3.016 7.066,-5.081 l -2.711,-2.614 c -1.677,1.937 -3.855,3.388 -6.533,4.356 -2.678,0.968 -5.531,1.451 -8.562,1.451 -1.873,0 -3.631,-0.194 -5.274,-0.581 -1.646,-0.387 -3.084,-1 -4.308,-1.838 -1.227,-0.84 -2.194,-1.92 -2.903,-3.242 -0.711,-1.322 -1.064,-2.889 -1.064,-4.694 0,-1.484 0.242,-2.677 0.724,-3.58 0.485,-0.904 1.26,-1.679 2.323,-2.322 1.066,-0.646 2.435,-1.211 4.113,-1.693 1.678,-0.486 3.678,-1.018 6,-1.598 3.16,-0.775 5.969,-1.515 8.42,-2.226 2.451,-0.709 4.5,-1.582 6.144,-2.614 1.647,-1.032 2.905,-2.257 3.774,-3.677 C 18.918,18.806 19.355,17 19.355,14.807 19.355,10.29 17.596,6.691 14.08,4.016 10.564,1.338 5.871,0 0,0" /></g><g
           transform="translate(290.7139,83.4346)"
           id="g46"><path
             id="path48"
             style="fill:#211d1d;fill-opacity:1;fill-rule:nonzero;stroke:none"
             d="M 0,0 H 1.143 V -6.475 H 0.297 v 5.17 L -1.74,-5.514 h -0.731 l -2.035,4.209 v -5.17 H -5.354 V 0 h 1.122 l 2.127,-4.461 z M -6.406,-0.823 H -8.58 v -5.652 h -0.867 v 5.652 h -2.174 v 0.868 h 5.215 z" /></g><path
           id="path50"
           style="fill:#211d1d;fill-opacity:1;fill-rule:nonzero;stroke:none"
           d="m 167.589,102.105 h 12.967 V 89.137 h -12.967 z" /><path
           id="path52"
           style="fill:#211d1d;fill-opacity:1;fill-rule:nonzero;stroke:none"
           d="m 141.737,102.105 h 12.966 V 89.137 h -12.966 z" /><path
           id="path54"
           style="fill:#211d1d;fill-opacity:1;fill-rule:nonzero;stroke:none"
           d="m 116.259,102.105 h 12.968 V 89.137 h -12.968 z" /><path
           id="path56"
           style="fill:#211d1d;fill-opacity:1;fill-rule:nonzero;stroke:none"
           d="m 90.909,102.105 h 12.967 V 89.137 H 90.909 Z" /><path
           id="path58"
           style="fill:#211d1d;fill-opacity:1;fill-rule:nonzero;stroke:none"
           d="m 154.536,114.954 h 12.967 v -12.967 h -12.967 z" /><path
           id="path60"
           style="fill:#211d1d;fill-opacity:1;fill-rule:nonzero;stroke:none"
           d="m 128.934,114.954 h 12.967 v -12.967 h -12.967 z" /><path
           id="path62"
           style="fill:#211d1d;fill-opacity:1;fill-rule:nonzero;stroke:none"
           d="m 103.584,114.954 h 12.967 v -12.967 h -12.967 z" /><path
           id="path64"
           style="fill:#211d1d;fill-opacity:1;fill-rule:nonzero;stroke:none"
           d="M 65.599,102.105 H 78.567 V 89.137 H 65.599 Z" /><path
           id="path66"
           style="fill:#211d1d;fill-opacity:1;fill-rule:nonzero;stroke:none"
           d="M 52.924,114.954 H 65.892 V 101.987 H 52.924 Z" /><path
           id="path68"
           style="fill:#211d1d;fill-opacity:1;fill-rule:nonzero;stroke:none"
           d="M 78.108,114.954 H 91.075 V 101.987 H 78.108 Z" /></g></g></g></svg>